{"title":"Django Unchained 2012 BRRip 720p x264 AAC - PRiSTiNE [P2PDL]","uid":8306729,"size":1006713904,"categoryP":"video","categoryS":"hd___movies","magnet":"?xt=urn:btih:25276628edd118a9dcada1d79d2a255c4a8ada68&amp;dn=Django+Unchained+2012+BRRip+720p+x264+AAC+-+PRiSTiNE+%5BP2PDL%5D&amp;tr=udp%3A%2F%2Ftracker.openbittorrent.com%3A80&amp;tr=udp%3A%2F%2Fopen.demonii.com%3A1337&amp;tr=udp%3A%2F%2Ftracker.coppersurfer.tk%3A6969&amp;tr=udp%3A%2F%2Fexodus.desync.com%3A6969","seeders":6,"leechers":1,"uploader":"Vitamin_X","files":-1,"time":1364392251,"description":"_________________________  Visit us at _________________________\n  &lt;a href=&quot;\nhttp://p2pdl.com&quot; rel=&quot;nofollow&quot; target=&quot;_NEW&quot;&gt;\nhttp://p2pdl.com&lt;/a&gt;  ____________________________ &lt;a href=&quot; http://p2pdl.com&quot; rel=&quot;nofollow&quot; target=&quot;_NEW&quot;&gt; http://p2pdl.com&lt;/a&gt;\n\n\nDjango Unchained 2012 BRRip 720p x264 AAC - PRiSTiNE\n\nGenre: Adventure | Crime | Drama | Western\nPlot: With the help of a German bounty hunter, \na freed slave sets out to rescue his wife from \na brutal Mississippi plantation owner.\nDirector: Quentin Tarantino\nStars: Jamie Foxx, Christoph Waltz, Leonardo DiCaprio\nRated: Rated R for strong graphic violence throughout, a vicious fight, language and some nudity\n\nInfo: &lt;a href=&quot;\nhttp://www.imdb.com/title/tt1853728/&quot; rel=&quot;nofollow&quot; target=&quot;_NEW&quot;&gt;\nhttp://www.imdb.com/title/tt1853728/&lt;/a&gt;\n\nGeneral\nComplete name                  : Django Unchained 2012 BRRip 720p x264 AAC - PRiSTiNE.mp4\nFormat                         : MPEG-4\nFormat profile                 : Base Media\nCodec ID                       : isom\nFile size                      : 949 MiB\nDuration                       : 2h 45mn\nOverall bit rate mode          : Variable\nOverall bit rate               : 802 Kbps\n\nSource                         : 720p BluRay SPARKS (Thanks)\n\nVideo\nFormat                         : AVC\nFormat/Info                    : Advanced Video Codec\nFormat profile                 : &lt;a class=&quot;__cf_email__&quot; href=&quot;/cdn-cgi/l/email-protection&quot; data-cfemail=&quot;9dd5f4faf5ddd1a9b3ac&quot;&gt;[email&amp;#160;protected]&lt;/a&gt;&lt;script cf-hash='f9e31' type=&quot;text/javascript&quot;&gt;\n/* &lt;![CDATA[ */!function(){try{var t=&quot;currentScript&quot;in document?document.currentScript:function(){for(var t=document.getElementsByTagName(&quot;script&quot;),e=t.length;e--;)if(t[e].getAttribute(&quot;cf-hash&quot;))return t[e]}();if(t&amp;&amp;t.previousSibling){var e,r,n,i,c=t.previousSibling,a=c.getAttribute(&quot;data-cfemail&quot;);if(a){for(e=&quot;&quot;,r=parseInt(a.substr(0,2),16),n=2;a.length-n;n+=2)i=parseInt(a.substr(n,2),16)^r,e+=String.fromCharCode(i);e=document.createTextNode(e),c.parentNode.replaceChild(e,c)}}}catch(u){}}();/* ]]&gt; */&lt;/script&gt;\nBit rate                       : 715 Kbps\nWidth                          : 1 280 pixels\nHeight                         : 536 pixels\nDisplay aspect ratio           : 2.40:1\nFrame rate mode                : Constant\nFrame rate                     : 23.976 fps\nColor space                    : YUV\nChroma subsampling             : 4:2:0\nBit depth                      : 8 bits\nScan type                      : Progressive\nBits/(Pixel*Frame)             : 0.043\nStream size                    : 846 MiB (89%)\nWriting library                : x264 core 129 r2245 bc13772\n\nAudio\nFormat                         : AAC\nBit rate                       : 84.0 Kbps\nChannel(s)                     : 2 channels\nChannel positions              : Front: L R\nSampling rate                  : 48.0 KHz / 24.0 KHz\nStream size                    : 99.3 MiB (10%)\nLanguage                       : English\n\nSubtitle                       : Yes (English)\n\nScreens: &lt;a href=&quot;\nhttp://imgr.us/images/a6cj6bs9e31504cjys.jpg&quot; rel=&quot;nofollow&quot; target=&quot;_NEW&quot;&gt;\nhttp://imgr.us/images/a6cj6bs9e31504cjys.jpg&lt;/a&gt; &lt;a href=&quot;\nhttp://imgr.us/images/wqs1rqkq6hy4cmn675pn.jpg&quot; rel=&quot;nofollow&quot; target=&quot;_NEW&quot;&gt;\nhttp://imgr.us/images/wqs1rqkq6hy4cmn675pn.jpg&lt;/a&gt; &lt;a href=&quot;\nhttp://imgr.us/images/nsphflyboj8058mxr6i.jpg&quot; rel=&quot;nofollow&quot; target=&quot;_NEW&quot;&gt;\nhttp://imgr.us/images/nsphflyboj8058mxr6i.jpg&lt;/a&gt; &lt;a href=&quot;\nhttp://imgr.us/images/6lwfiqkbwh6k48uo3g9.jpg&quot; rel=&quot;nofollow&quot; target=&quot;_NEW&quot;&gt;\nhttp://imgr.us/images/6lwfiqkbwh6k48uo3g9.jpg&lt;/a&gt; &lt;a href=&quot;\nhttp://imgr.us/images/6bz7rl9ikqdeyn9ro9hi.jpg&quot; rel=&quot;nofollow&quot; target=&quot;_NEW&quot;&gt;\nhttp://imgr.us/images/6bz7rl9ikqdeyn9ro9hi.jpg&lt;/a&gt; &lt;a href=&quot;\nhttp://imgr.us/images/ze119xhtxssl8uulbnt.jpg&quot; rel=&quot;nofollow&quot; target=&quot;_NEW&quot;&gt;\nhttp://imgr.us/images/ze119xhtxssl8uulbnt.jpg&lt;/a&gt;\n----------------------------------------------------------------------------------------------------\nRecommend to you to use latest version of VLC player. Install K-Lite Codec Pack or shark007 codecs\nin case of any kind of problem in playback (For non-VLC Media Player users). Alternatively, install\nCore AVC codecs, the fastest decoder that there is coupled with Community Center Codec Pack and play\non Windows Media Player Classic. Check sample to be sure.\nEnjoy!\n\nEncoder Notes:Looking For Early Access To Anything You Can Provide DVDScr, R5, DVDR, BluRay, Direct\nAudio, Music Releases and Seedboxes. We require dedicated servers, so as to do more \nand fast releases of movies.\nIf You Got anything to offer please contact us at &quot;&lt;a class=&quot;__cf_email__&quot; href=&quot;/cdn-cgi/l/email-protection&quot; data-cfemail=&quot;ccbcbeab8ca4b9bfa4e2afa3a1&quot;&gt;[email&amp;#160;protected]&lt;/a&gt;&lt;script cf-hash='f9e31' type=&quot;text/javascript&quot;&gt;\n/* &lt;![CDATA[ */!function(){try{var t=&quot;currentScript&quot;in document?document.currentScript:function(){for(var t=document.getElementsByTagName(&quot;script&quot;),e=t.length;e--;)if(t[e].getAttribute(&quot;cf-hash&quot;))return t[e]}();if(t&amp;&amp;t.previousSibling){var e,r,n,i,c=t.previousSibling,a=c.getAttribute(&quot;data-cfemail&quot;);if(a){for(e=&quot;&quot;,r=parseInt(a.substr(0,2),16),n=2;a.length-n;n+=2)i=parseInt(a.substr(n,2),16)^r,e+=String.fromCharCode(i);e=document.createTextNode(e),c.parentNode.replaceChild(e,c)}}}catch(u){}}();/* ]]&gt; */&lt;/script&gt;&quot;.\n\nFan Page: www.fb.me/p2pdl","torrent":{"xt":"urn:btih:25276628edd118a9dcada1d79d2a255c4a8ada68","amp;dn":"Django+Unchained+2012+BRRip+720p+x264+AAC+-+PRiSTiNE+%5BP2PDL%5D","amp;tr":["udp%3A%2F%2Ftracker.openbittorrent.com%3A80","udp%3A%2F%2Fopen.demonii.com%3A1337","udp%3A%2F%2Ftracker.coppersurfer.tk%3A6969","udp%3A%2F%2Fexodus.desync.com%3A6969"],"infoHash":"25276628edd118a9dcada1d79d2a255c4a8ada68","infoHashBuffer":{"type":"Buffer","data":[37,39,102,40,237,209,24,169,220,173,161,215,157,42,37,92,74,138,218,104]},"announce":[],"urlList":[]}}